
<svg version="1.1" xmlns="http://www.w3.org/2000/svg" xmlns:xlink="http://www.w3.org/1999/xlink" x="0px" y="0px"
	 viewBox="0 0 450 450" style="enable-background:new 0 0 450 450;" xml:space="preserve" id="logo">
<defs>
	<style type="text/css">
		.st0{display:none;fill:#A8A8A8;}
		.st1{fill:#fff;stroke:#BC1746;stroke-width:2;stroke-miterlimit:10;}
		#toplogo {
			stroke-dasharray: 1650;
			stroke-dashoffset:0;
			-webkit-animation: dash 3s linear forwards;
		}
		#downlogo {
			stroke-dasharray: 1650;
			stroke-dashoffset:0;
			-webkit-animation: dash 3s linear forwards;
		}

		#logo:hover .st1 {
			fill: #000;
			transition: .8s;
		}

		#logo {
			cursor: pointer;
		}

		#logo.clickit .st1 {
			fill: #BC1746;
			stroke: #000;
		}

		@-webkit-keyframes dash {
			from{
			stroke-dashoffset: 1650;
			}
			to {
			stroke-dashoffset: 0;
			}
		}
	</style>
	<script>
		var clicker = document.querySelector('#logo');
		clicker.addEventListener('click', function(){
			this.classList.toggle('clickit');
		});
	</script>
</defs>

<rect x="-175" y="-175" class="st0" width="800" height="800"/>
<g>
	<g>
		<path id="toplogo" class="st1" d="M407.7,15.2c-6.6,9.9-13.2,19.8-19.9,29.7c-15.9,23.8-31.8,47.6-47.7,71.5c-19.2,28.8-38.5,57.7-57.7,86.5
			C265.8,228,249,253,232.3,278.1c-5.4,8.2-6.6,13.1-9.9,7.6c-15.9-23.8-31.8-48-47.7-71.8C155.5,185,136.2,156,117,127.1
			c-16.7-25.1-33.4-50.2-50.2-75.3c-8.1-12.1-16-24.4-24.2-36.4c-0.1-0.2-0.2-0.4-0.3-0.5C36.5,6.2,24.4,1.6,14.9,7.7
			c-8.7,5.6-13.4,18-7.2,27.4C14.3,45,21,54.9,27.6,64.9c15.9,23.8,31.8,47.7,47.7,71.5c19.2,28.9,38.5,57.7,57.7,86.6
			c16.7,25.1,33.4,50.2,50.2,75.2c8.1,12.1,16,24.4,24.2,36.4c0.1,0.2,0.2,0.3,0.3,0.5c8.6,12.9,26,12.9,34.5,0
			c6.6-9.9,13.2-19.8,19.9-29.7c15.9-23.8,31.8-47.6,47.7-71.5c19.2-28.8,38.5-57.7,57.7-86.5c16.7-25.1,33.4-50.1,50.2-75.2
			c8.1-12.1,16.7-23.9,24.2-36.3c0.1-0.2,0.2-0.3,0.3-0.5c5.8-8.7,2-22.5-7.2-27.4C425,2.7,413.9,5.9,407.7,15.2L407.7,15.2z"/>
	</g>
	<g>
		<path id="downlogo" class="st1" d="M41.8,435.1c6.7-10,13.3-20,20-29.9c15.9-23.8,31.8-47.6,47.7-71.5c19.3-28.9,38.7-57.9,58-86.8
			c16.6-24.9,33.3-49.8,49.9-74.7c7-10.5,7.1-11.8,10.1-6.8c15.3,24.2,31.8,47.5,47.7,71.3c19.2,28.9,38.5,57.6,57.7,86.5
			c16.7,25.1,33.4,50.1,50.2,75.2c8.1,12.1,16,24.3,24.2,36.3c0.1,0.2,0.2,0.3,0.3,0.5c5.8,8.7,17.9,13.3,27.4,7.2
			c8.7-5.6,13.4-18.1,7.2-27.4c-6.6-9.9-13.2-19.9-19.9-29.8c-15.9-23.8-31.8-47.7-47.7-71.5c-19.2-28.9-38.5-57.7-57.7-86.6
			c-16.7-25.1-33.4-50.2-50.2-75.2c-8.1-12.1-16-24.4-24.2-36.4c-0.1-0.2-0.2-0.3-0.3-0.5c-8.6-12.9-26-12.8-34.5,0
			c-6.7,10-13.3,20-20,29.9c-15.9,23.8-31.8,47.6-47.7,71.5c-19.3,28.9-38.7,57.9-58,86.8C65.3,328,48.7,353,32,377.9
			c-8.1,12.1-16.8,24.1-24.4,36.5c-0.1,0.2-0.2,0.3-0.3,0.5c-5.8,8.7-2,22.5,7.2,27.4C24.5,447.6,35.6,444.4,41.8,435.1L41.8,435.1z
			"/>
	</g>
</g>
</svg>
